<?xml version="1.0" standalone="no"?>
<!DOCTYPE svg PUBLIC "-//W3C//DTD SVG 20010904//EN"
 "http://www.w3.org/TR/2001/REC-SVG-20010904/DTD/svg10.dtd">
<svg version="1.0" xmlns="http://www.w3.org/2000/svg"
 width="400.000000pt" height="400.000000pt" viewBox="0 0 400.000000 400.000000"
 preserveAspectRatio="xMidYMid meet">

<g transform="translate(0.000000,400.000000) scale(0.100000,-0.100000)"
fill="#000000" stroke="none">
<path d="M1740 3654 c-483 -76 -897 -341 -1170 -747 -56 -84 -122 -210 -124
-236 -1 -9 -9 -28 -19 -43 -11 -15 -15 -33 -11 -39 5 -8 3 -9 -5 -5 -8 5 -11
3 -10 -5 2 -8 -3 -25 -10 -38 -8 -14 -9 -21 -2 -17 6 4 11 1 11 -8 0 -20 -17
-30 -23 -14 -3 7 -3 -3 0 -22 6 -35 23 -66 23 -41 0 7 5 9 12 5 7 -4 8 -3 4 5
-4 6 -12 9 -17 6 -5 -4 -9 3 -9 15 0 17 3 19 19 10 11 -5 22 -15 24 -22 3 -7
6 2 6 20 1 17 6 32 11 32 16 0 12 -65 -9 -148 -36 -144 -45 -226 -45 -402 0
-206 17 -318 74 -492 103 -315 276 -564 530 -767 613 -489 1484 -464 2070 61
52 46 113 107 135 134 22 27 49 59 60 72 80 93 211 339 259 484 59 182 71 265
71 508 0 186 -3 240 -19 310 -11 47 -20 97 -20 112 -1 14 -4 25 -7 23 -3 -2
-10 14 -16 35 -5 22 -6 37 -2 34 5 -3 9 2 9 10 0 23 18 19 26 -6 6 -19 7 -20
16 -4 8 14 12 15 25 4 14 -12 15 -11 5 9 -15 27 -16 55 -2 33 6 -9 10 -10 10
-3 0 6 -4 15 -10 18 -5 3 -10 17 -10 31 0 14 -4 22 -10 19 -10 -6 -14 7 -11
32 2 17 -111 232 -161 305 -166 245 -403 450 -669 577 -258 124 -470 171 -759
170 -91 -1 -203 -7 -250 -15z m560 -294 c0 -5 -2 -10 -4 -10 -3 0 -8 5 -11 10
-3 6 -1 10 4 10 6 0 11 -4 11 -10z m-55 -47 c-29 -30 -59 -103 -47 -115 13
-12 323 -190 326 -186 1 1 10 24 19 49 20 54 88 115 115 104 15 -6 14 -9 -6
-23 -62 -44 -81 -70 -106 -142 -56 -166 -126 -363 -128 -365 -2 -1 -33 -19
-70 -40 l-68 -39 58 -36 c64 -41 82 -70 82 -137 0 -39 -5 -50 -37 -80 -52 -49
-469 -284 -515 -290 -33 -5 -55 4 -182 77 -197 111 -201 128 -45 216 54 31
101 59 104 63 2 4 -42 34 -98 66 -56 32 -106 63 -110 69 -4 6 -6 73 -5 149 l3
138 30 23 c54 40 194 126 205 126 7 0 10 -43 9 -127 -1 -122 10 -183 33 -183
4 0 8 -4 8 -10 0 -5 -13 -2 -29 8 -19 10 -27 22 -23 32 3 9 2 11 -4 5 -5 -5
-13 -13 -18 -16 -5 -4 15 -19 43 -34 29 -14 56 -24 59 -20 4 3 0 10 -8 15 -9
6 -10 10 -3 10 7 0 17 -8 23 -17 9 -14 12 -15 17 -4 4 9 8 10 12 2 5 -8 13 -5
27 7 10 10 63 44 116 75 53 31 99 61 103 66 3 6 3 46 -1 90 l-7 81 -76 44
c-42 24 -93 52 -113 62 -42 20 -43 23 -31 147 6 67 7 68 31 62 19 -5 23 -3 19
9 -3 8 -3 17 0 20 8 7 143 -65 138 -74 -6 -10 38 -6 55 5 9 6 22 30 30 55 15
48 80 124 87 103 3 -7 -8 -25 -22 -40z m193 -26 c20 -13 54 -32 75 -42 20 -9
37 -22 37 -27 0 -5 4 -7 9 -4 5 3 15 -1 22 -10 12 -15 10 -15 -24 0 -33 13
-137 77 -161 98 -20 16 5 7 42 -15z m-558 -426 c0 -37 5 -52 24 -71 35 -32 56
-21 56 29 0 22 5 43 10 46 6 4 10 -11 10 -39 0 -35 -5 -48 -21 -60 -19 -13
-26 -13 -49 -1 -15 8 -29 12 -32 10 -2 -2 -5 4 -6 13 -1 9 -4 44 -8 76 -5 43
-4 57 5 52 6 -4 11 -29 11 -55z m-71 -196 c0 -5 -4 -3 -9 5 -5 8 -9 22 -9 30
0 16 17 -16 18 -35z m1147 -457 c69 -39 122 -74 117 -77 -4 -3 -8 -12 -8 -20
0 -17 -381 -242 -405 -239 -8 0 -28 -4 -43 -10 -66 -28 -157 -5 -157 39 0 14
-7 19 -29 19 -55 0 -70 25 -73 119 -2 72 0 85 17 97 31 23 85 28 130 13 36
-13 43 -13 73 4 45 26 52 15 8 -13 -33 -20 -47 -40 -28 -40 4 0 30 16 57 35
28 19 85 60 128 90 43 30 80 55 83 55 2 0 61 -32 130 -72z m-588 -4 c-11 -11
-18 -12 -22 -5 -4 6 0 11 8 11 9 0 16 5 16 12 0 6 3 8 7 4 4 -3 0 -14 -9 -22z
m-955 -200 c87 -44 197 -120 197 -136 0 -10 -5 -18 -11 -18 -5 0 -7 5 -3 12 4
7 3 8 -4 4 -7 -4 -12 -16 -12 -28 0 -18 -2 -19 -17 -7 -14 12 -16 12 -11 -1 2
-8 18 -18 34 -21 24 -6 25 -7 6 -8 -29 -1 -85 27 -77 39 3 6 0 8 -7 5 -14 -6
-218 111 -218 124 0 10 30 37 50 44 26 9 40 8 73 -9z m573 -22 c-10 -11 -16
-12 -16 -4 0 7 5 12 10 12 6 0 10 8 11 18 0 11 2 13 6 4 3 -8 -2 -21 -11 -30z
m408 -311 c-9 -10 -44 -11 -44 -1 0 5 11 9 25 8 13 -1 22 -4 19 -7z m-64 -42
c0 -6 -26 -15 -57 -21 -5 0 -13 -8 -19 -16 -9 -12 -13 -12 -19 -2 -5 9 -4 11
3 6 7 -4 12 -1 12 7 0 8 10 19 23 24 24 12 57 13 57 2z m-179 -9 c27 -15 24
-27 -12 -46 -26 -13 -36 -13 -60 -4 -36 15 -37 25 -1 44 33 18 47 19 73 6z
m-549 -25 c-5 -30 -37 -34 -52 -6 -9 17 -6 20 18 24 15 2 30 5 33 6 3 0 4 -10
1 -24z m698 -79 c0 -3 -4 -8 -10 -11 -5 -3 -10 -1 -10 4 0 6 5 11 10 11 6 0
10 -2 10 -4z m-35 -26 c-3 -5 -14 -10 -23 -9 -14 0 -13 2 3 9 27 11 27 11 20
0z m-890 -154 c8 -20 15 -53 15 -75 0 -23 5 -41 13 -44 9 -3 8 -13 -6 -41 -11
-23 -22 -34 -29 -30 -8 5 -9 2 -5 -9 4 -11 -1 -20 -14 -27 -10 -6 -19 -7 -18
-3 4 15 -13 43 -22 37 -5 -3 -9 0 -9 5 0 6 4 11 8 11 13 0 34 166 27 212 -6
42 -6 42 10 21 9 -13 22 -38 30 -57z m125 -116 c45 0 70 -8 70 -22 0 -6 -7 -8
-15 -4 -12 4 -13 2 -3 -14 9 -14 15 -16 21 -7 5 7 6 -3 2 -23 -5 -27 -4 -32 5
-20 10 13 11 13 7 0 -2 -8 -14 -14 -26 -14 -17 1 -19 -1 -10 -12 6 -8 15 -11
20 -8 11 6 12 -20 2 -30 -5 -4 -9 -12 -9 -17 -1 -5 -2 -10 -4 -11 -1 -2 -3
-11 -5 -21 -2 -13 1 -17 11 -13 8 3 14 1 14 -5 0 -6 6 -7 13 -3 6 4 1 -5 -13
-21 -14 -16 -19 -25 -11 -20 11 6 13 3 9 -13 -4 -12 -2 -22 3 -22 15 0 10 -47
-6 -64 -8 -8 -15 -21 -15 -28 0 -11 -2 -11 -9 0 -7 11 -9 11 -14 -1 -7 -19 1
-27 26 -27 16 0 17 -3 7 -15 -10 -12 -36 -15 -115 -15 -56 0 -104 3 -108 6 -8
9 21 99 60 185 32 70 37 76 66 78 18 2 39 3 48 4 11 1 15 12 13 48 -2 58 -6
66 -43 71 -17 2 -28 1 -25 -4 3 -4 -3 -8 -13 -9 -16 0 -16 -1 2 -9 18 -8 19
-9 1 -9 -12 -1 -16 -6 -12 -17 3 -8 2 -12 -4 -9 -10 6 -6 47 9 87 4 13 7 29 5
36 -1 7 0 8 3 2 2 -5 22 -10 43 -10z m664 4 c22 -21 22 -122 0 -152 -12 -18
-25 -22 -65 -22 l-49 0 0 95 0 95 49 0 c32 0 55 -6 65 -16z m106 -79 c0 -88
-1 -95 -20 -95 -19 0 -20 7 -20 95 0 88 1 95 20 95 19 0 20 -7 20 -95z m174
73 c9 -12 16 -26 16 -30 0 -15 -38 -8 -44 8 -3 9 -15 14 -28 12 -21 -3 -23 -8
-23 -63 0 -51 3 -60 19 -63 10 -2 22 2 27 10 13 19 11 28 -6 28 -8 0 -15 7
-15 15 0 10 11 15 35 15 l35 0 0 -49 0 -49 -53 -1 c-72 0 -80 7 -85 78 -6 81
12 111 68 111 29 0 43 -6 54 -22z m106 -73 c0 -88 -1 -95 -20 -95 -19 0 -20 7
-20 95 0 88 1 95 20 95 19 0 20 -7 20 -95z m164 80 c4 -11 -1 -15 -19 -15 -25
0 -25 -2 -25 -80 0 -73 -2 -80 -20 -80 -18 0 -20 7 -20 80 0 73 -2 80 -20 80
-11 0 -20 7 -20 15 0 12 13 15 59 15 43 0 60 -4 65 -15z m126 8 c0 -5 9 -39
20 -78 25 -89 25 -105 1 -105 -13 0 -21 8 -23 23 -5 34 -45 36 -54 3 -4 -17
-13 -26 -26 -26 -16 0 -19 5 -14 23 3 12 13 55 23 95 16 68 18 72 45 72 15 0
28 -3 28 -7z m120 -73 l0 -80 35 0 c24 0 35 -5 35 -15 0 -12 -13 -15 -55 -15
l-55 0 0 95 c0 88 1 95 20 95 18 0 20 -7 20 -80z m-1349 -23 c-10 -9 -11 -8
-5 6 3 10 9 15 12 12 3 -3 0 -11 -7 -18z m-301 -11 c0 -2 -7 -7 -16 -10 -8 -3
-12 -2 -9 4 6 10 25 14 25 6z m293 -48 c-20 -59 -33 -70 -20 -16 9 35 22 57
33 58 1 0 -5 -19 -13 -42z m855 -59 c40 -14 57 -67 49 -152 -7 -76 -25 -97
-86 -97 -25 0 -51 4 -58 8 -19 12 -33 59 -33 111 0 78 10 110 39 126 32 17 49
18 89 4z m-348 -84 c7 -47 16 -83 19 -79 3 3 13 40 21 82 13 67 18 77 38 80
13 2 22 -2 23 -10 0 -7 8 -51 18 -98 l18 -85 12 75 c19 121 19 120 46 120 14
0 25 -2 25 -4 0 -3 -11 -56 -25 -120 -14 -64 -25 -118 -25 -121 0 -3 -14 -5
-30 -5 -34 0 -33 -2 -51 90 -12 58 -13 62 -20 35 -4 -17 -10 -51 -14 -77 -6
-46 -8 -48 -39 -48 l-32 0 -23 112 c-13 62 -25 118 -28 125 -4 9 4 13 24 13
30 0 30 -1 43 -85z m546 79 c29 -8 46 -47 34 -79 -5 -14 -15 -25 -21 -25 -8 0
-7 -6 3 -17 8 -10 18 -42 21 -70 6 -51 5 -53 -18 -53 -23 0 -25 4 -25 43 0 50
-13 67 -52 67 -27 0 -28 -1 -28 -55 0 -48 -2 -55 -20 -55 -19 0 -20 7 -20 125
l0 125 53 0 c28 0 62 -3 73 -6z m112 -106 l3 -108 44 0 c25 0 45 -4 45 -9 0
-12 -37 -21 -92 -21 l-48 0 0 126 c0 124 0 125 23 122 21 -3 22 -8 25 -110z
m144 10 c-2 -51 -9 -99 -14 -106 -8 -10 -6 -11 8 -5 17 6 17 5 5 -10 -30 -37
-37 -20 -37 88 1 77 4 105 14 105 6 0 12 5 12 10 0 6 3 10 8 10 4 0 5 -42 4
-92z m-1305 10 c-3 -8 -6 -5 -6 6 -1 11 2 17 5 13 3 -3 4 -12 1 -19z m-593
-34 c9 -3 16 -12 16 -19 0 -8 5 -17 12 -21 7 -5 9 -2 4 7 -4 8 0 5 8 -5 9 -11
16 -25 17 -30 0 -6 4 -2 9 9 7 15 9 11 7 -20 l-2 -40 -62 -3 c-69 -3 -69 -4
-44 86 13 46 12 45 35 36z m588 -73 c7 11 9 11 6 1 -5 -17 -23 -17 -24 0 -1 9
1 8 4 -1 3 -12 5 -12 14 0z"/>
<path d="M2177 3164 c-8 -8 1 -24 14 -24 5 0 9 7 9 15 0 15 -12 20 -23 9z"/>
<path d="M2210 3135 c0 -8 7 -15 15 -15 8 0 15 7 15 15 0 8 -7 15 -15 15 -8 0
-15 -7 -15 -15z"/>
<path d="M2235 3107 c-17 -18 -21 -39 -24 -122 -3 -91 -2 -98 13 -86 19 16 24
13 29 -15 6 -44 16 -45 75 -8 31 20 66 45 77 56 19 18 19 20 3 29 -10 5 -21 9
-24 9 -4 -1 -10 4 -15 11 -6 10 -11 10 -23 -1 -14 -11 -16 -10 -10 5 10 25
-16 38 -33 17 -13 -15 -13 -15 -8 5 4 16 1 23 -15 28 -16 5 -19 12 -14 28 19
58 3 80 -31 44z"/>
<path d="M2286 3084 c-4 -15 -2 -32 3 -37 14 -14 21 -5 24 28 3 37 -19 43 -27
9z"/>
<path d="M2326 3064 c-10 -26 -7 -44 8 -44 14 0 26 21 26 46 0 19 -26 18 -34
-2z"/>
<path d="M2366 3044 c-10 -26 -7 -44 8 -44 8 0 17 9 21 20 11 34 -16 57 -29
24z"/>
<path d="M2404 3015 c-4 -15 -2 -31 5 -38 14 -14 21 -6 24 28 3 36 -20 44 -29
10z"/>
<path d="M2444 2995 c-9 -34 5 -53 23 -30 17 24 17 41 -2 49 -10 3 -17 -3 -21
-19z"/>
<path d="M2477 2932 c-10 -10 -17 -34 -16 -53 l1 -34 14 33 c8 18 12 37 9 42
-3 4 1 10 7 13 7 2 10 7 7 11 -3 3 -13 -2 -22 -12z"/>
<path d="M2432 2908 c-14 -14 -16 -48 -3 -48 9 0 25 49 18 56 -2 2 -9 -2 -15
-8z"/>
<path d="M1743 2903 c-16 -6 -18 -93 -3 -93 15 0 22 23 18 62 -2 23 -7 33 -15
31z"/>
<path d="M1692 2868 c-7 -7 -12 -29 -12 -50 0 -36 2 -38 20 -28 15 8 20 21 20
50 0 41 -7 49 -28 28z"/>
<path d="M1654 2842 c-17 -10 -22 -74 -7 -79 17 -6 25 17 21 56 -2 20 -7 28
-14 23z"/>
<path d="M2333 2833 c-18 -7 -16 -30 2 -37 11 -4 15 1 15 19 0 14 -1 25 -2 24
-2 0 -9 -3 -15 -6z"/>
<path d="M2382 2808 c-5 -20 -5 -35 1 -39 5 -4 4 -8 -3 -11 -20 -6 -18 -66 2
-85 17 -15 18 -15 18 8 0 20 -2 21 -11 9 -8 -11 -9 -8 -4 15 10 45 17 135 11
135 -3 0 -9 -15 -14 -32z"/>
<path d="M2436 2824 c-3 -9 -4 -20 -1 -24 3 -5 1 -11 -5 -15 -5 -3 -10 -21 -9
-38 0 -32 0 -32 10 -7 11 27 22 100 15 100 -2 0 -7 -7 -10 -16z"/>
<path d="M1602 2808 c-16 -16 -15 -66 1 -83 12 -11 14 -5 16 41 2 58 1 60 -17
42z"/>
<path d="M1742 2801 c-9 -5 -12 -26 -10 -64 2 -43 6 -55 16 -48 9 5 12 26 10
64 -2 43 -6 55 -16 48z"/>
<path d="M2276 2784 c-11 -28 -6 -54 9 -54 10 0 15 11 15 35 0 36 -13 47 -24
19z"/>
<path d="M1556 2781 c-8 -12 3 -41 15 -41 5 0 9 11 9 25 0 25 -14 34 -24 16z"/>
<path d="M1693 2773 c-8 -3 -13 -24 -13 -54 0 -42 3 -49 20 -49 18 0 20 7 20
55 0 54 -3 58 -27 48z"/>
<path d="M2320 2760 c0 -13 5 -20 13 -17 6 2 12 10 12 17 0 7 -6 15 -12 18 -8
2 -13 -5 -13 -18z"/>
<path d="M1641 2732 c-7 -13 -6 -23 1 -30 19 -19 28 -14 28 18 0 34 -14 39
-29 12z"/>
<path d="M1541 2714 c0 -11 3 -14 6 -6 3 7 2 16 -1 19 -3 4 -6 -2 -5 -13z"/>
<path d="M2320 2714 c0 -8 5 -12 10 -9 6 3 10 10 10 16 0 5 -4 9 -10 9 -5 0
-10 -7 -10 -16z"/>
<path d="M2120 2670 c0 -38 12 -52 25 -30 9 14 -4 70 -16 70 -5 0 -9 -18 -9
-40z"/>
<path d="M2282 2697 c-9 -11 -10 -17 -2 -22 15 -9 23 -1 18 21 -3 15 -4 16
-16 1z"/>
<path d="M1567 2693 c-11 -10 -8 -103 3 -103 6 0 10 25 10 55 0 56 -1 60 -13
48z"/>
<path d="M1543 2630 c0 -36 2 -50 4 -32 2 17 2 47 0 65 -2 17 -4 3 -4 -33z"/>
<path d="M1600 2650 c0 -22 5 -40 10 -40 6 0 10 18 10 40 0 22 -4 40 -10 40
-5 0 -10 -18 -10 -40z"/>
<path d="M2083 2683 c-8 -3 -13 -23 -13 -51 0 -43 1 -45 16 -30 16 16 27 75
15 82 -3 2 -12 1 -18 -1z"/>
<path d="M2322 2668 c2 -12 9 -23 16 -26 18 -6 15 35 -4 42 -11 4 -15 0 -12
-16z"/>
<path d="M1640 2649 c0 -12 5 -19 12 -17 18 6 20 25 3 31 -10 5 -15 0 -15 -14z"/>
<path d="M2042 2651 c-14 -8 -26 -81 -14 -81 22 1 33 20 30 53 -2 28 -6 34
-16 28z"/>
<path d="M2280 2641 c0 -11 5 -23 10 -26 6 -3 10 3 10 14 0 11 -4 23 -10 26
-5 3 -10 -3 -10 -14z"/>
<path d="M1686 2623 c-12 -12 -6 -33 9 -33 8 0 15 6 15 14 0 17 -14 28 -24 19z"/>
<path d="M1992 2618 c-18 -18 -15 -68 3 -68 11 0 15 11 15 40 0 44 -1 45 -18
28z"/>
<path d="M2315 2620 c-3 -5 -2 -10 4 -10 5 0 13 5 16 10 3 6 2 10 -4 10 -5 0
-13 -4 -16 -10z"/>
<path d="M1722 2565 c0 -25 3 -47 8 -50 5 -3 8 15 8 40 0 25 -3 47 -8 50 -5 3
-8 -15 -8 -40z"/>
<path d="M2127 2603 c-13 -13 -7 -51 9 -57 23 -9 27 -2 18 26 -4 13 -7 26 -6
31 2 9 -12 9 -21 0z"/>
<path d="M1640 2581 c0 -12 6 -21 16 -21 9 0 14 7 12 17 -5 25 -28 28 -28 4z"/>
<path d="M1935 2570 c-24 -46 -19 -72 11 -52 9 6 16 82 8 82 -2 0 -10 -13 -19
-30z"/>
<path d="M1750 2572 c0 -11 7 -23 16 -26 11 -4 15 0 12 16 -4 28 -28 36 -28
10z"/>
<path d="M2083 2583 c-15 -5 -17 -49 -3 -58 6 -3 13 0 16 9 9 23 0 53 -13 49z"/>
<path d="M1683 2535 c1 -27 7 -50 14 -52 12 -4 12 21 0 33 -4 4 -2 13 5 21 9
11 8 18 -5 30 -15 16 -16 13 -14 -32z"/>
<path d="M1600 2551 c0 -12 6 -21 16 -21 9 0 14 7 12 17 -5 25 -28 28 -28 4z"/>
<path d="M1792 2546 c4 -28 28 -33 28 -6 0 18 4 20 23 14 12 -3 29 -13 38 -20
22 -20 29 -17 29 11 0 23 -2 24 -60 22 -54 -2 -60 -4 -58 -21z"/>
<path d="M1574 2551 c4 -5 1 -11 -6 -13 -6 -2 -9 -12 -5 -21 10 -28 26 -19 25
13 -1 17 -5 30 -10 30 -5 0 -7 -4 -4 -9z"/>
<path d="M2035 2548 c-2 -7 -6 -30 -9 -50 -5 -32 -3 -38 12 -38 13 0 18 10 20
50 2 31 -1 50 -8 50 -6 0 -13 -6 -15 -12z"/>
<path d="M2170 2545 c0 -9 5 -15 11 -13 6 2 11 8 11 13 0 5 -5 11 -11 13 -6 2
-11 -4 -11 -13z"/>
<path d="M1642 2506 c0 -26 4 -46 10 -46 6 0 8 8 5 19 -2 10 -1 25 4 33 6 10
4 20 -5 27 -12 10 -14 4 -14 -33z"/>
<path d="M1752 2518 c2 -12 9 -23 16 -26 18 -6 15 35 -4 42 -11 4 -15 0 -12
-16z"/>
<path d="M1830 2527 c0 -8 7 -21 16 -28 14 -11 15 -10 12 11 -3 26 -28 41 -28
17z"/>
<path d="M2172 2495 c-41 -23 -78 -47 -83 -52 -7 -7 34 -36 115 -82 120 -69
126 -72 149 -56 45 29 58 84 32 135 -12 23 -122 103 -136 99 -2 0 -37 -20 -77
-44z"/>
<path d="M1987 2523 c-12 -12 -7 -22 8 -17 8 4 15 10 15 15 0 11 -14 12 -23 2z"/>
<path d="M2125 2519 c-4 -6 -5 -13 -2 -16 7 -7 27 6 27 18 0 12 -17 12 -25 -2z"/>
<path d="M1600 2508 c0 -18 18 -34 28 -24 3 4 -2 14 -11 23 -16 16 -17 16 -17
1z"/>
<path d="M1876 2513 c-11 -11 -6 -22 12 -32 14 -7 18 -6 19 9 2 18 -20 34 -31
23z"/>
<path d="M1790 2497 c0 -8 7 -21 16 -28 14 -11 15 -10 12 11 -3 26 -28 41 -28
17z"/>
<path d="M2080 2500 c-12 -7 -12 -12 -3 -21 10 -10 14 -9 19 5 8 22 2 27 -16
16z"/>
<path d="M1720 2480 c0 -11 5 -20 10 -20 6 0 10 9 10 20 0 11 -4 20 -10 20 -5
0 -10 -9 -10 -20z"/>
<path d="M1830 2471 c0 -10 7 -21 15 -25 10 -3 15 1 15 13 0 10 -7 21 -15 25
-10 3 -15 -1 -15 -13z"/>
<path d="M1920 2479 c0 -5 5 -7 10 -4 6 3 10 8 10 11 0 2 -4 4 -10 4 -5 0 -10
-5 -10 -11z"/>
<path d="M1750 2467 c0 -8 7 -21 16 -28 14 -11 15 -10 12 11 -3 26 -28 41 -28
17z"/>
<path d="M1680 2455 c0 -9 5 -15 11 -13 6 2 11 8 11 13 0 5 -5 11 -11 13 -6 2
-11 -4 -11 -13z"/>
<path d="M1790 2442 c0 -11 7 -23 16 -26 11 -4 15 0 12 16 -4 28 -28 36 -28
10z"/>
<path d="M1980 2452 c0 -12 19 -26 26 -19 2 2 -2 10 -11 17 -9 8 -15 8 -15 2z"/>
<path d="M1720 2436 c0 -8 5 -18 10 -21 6 -3 10 1 10 9 0 8 -4 18 -10 21 -5 3
-10 -1 -10 -9z"/>
<path d="M1920 2432 c0 -10 21 -32 32 -32 16 0 8 19 -12 30 -11 6 -20 7 -20 2z"/>
<path d="M1750 2417 c0 -8 7 -18 16 -21 11 -4 14 -1 12 11 -4 21 -28 30 -28
10z"/>
<path d="M2040 2420 c-8 -5 -11 -12 -7 -16 4 -4 15 0 24 9 18 18 8 23 -17 7z"/>
<path d="M1880 2396 c0 -8 7 -16 15 -20 9 -3 15 0 15 8 0 8 -7 16 -15 20 -9 3
-15 0 -15 -8z"/>
<path d="M2065 2401 c-3 -5 37 -35 90 -66 113 -66 120 -69 142 -60 29 10 -72
68 -105 60 -21 -5 -23 -4 -14 8 10 11 3 19 -37 40 -52 29 -67 32 -76 18z"/>
<path d="M1990 2390 c-12 -8 -11 -10 8 -10 12 0 22 5 22 10 0 13 -11 13 -30 0z"/>
<path d="M1830 2370 c0 -5 7 -10 16 -10 8 0 12 5 9 10 -3 6 -10 10 -16 10 -5
0 -9 -4 -9 -10z"/>
<path d="M2017 2373 c-12 -12 92 -65 115 -57 17 5 13 10 -31 35 -50 29 -72 35
-84 22z"/>
<path d="M1945 2360 c-8 -13 5 -13 25 0 13 8 13 10 -2 10 -9 0 -20 -4 -23 -10z"/>
<path d="M1980 2350 c-17 -10 -18 -10 41 -44 27 -15 53 -24 63 -20 11 4 15 2
11 -7 -6 -16 89 -74 105 -64 16 10 12 21 -12 33 -13 6 -45 25 -73 42 -95 57
-121 69 -135 60z"/>
<path d="M1810 2321 c43 -27 75 -31 67 -8 -3 9 -79 37 -102 37 -5 0 10 -13 35
-29z"/>
<path d="M1902 2343 c-6 -2 -10 -9 -7 -13 7 -11 35 -2 35 11 0 10 -8 10 -28 2z"/>
<path d="M1735 2330 c-9 -14 -2 -22 39 -44 20 -11 42 -16 53 -12 14 6 9 13
-30 37 -53 33 -53 33 -62 19z"/>
<path d="M1932 2321 c-10 -6 1 -17 38 -40 42 -26 55 -30 66 -20 13 10 7 17
-33 40 -54 32 -53 32 -71 20z"/>
<path d="M1685 2300 c-8 -13 71 -61 90 -54 18 7 20 24 3 24 -7 0 -24 9 -38 20
-28 22 -46 25 -55 10z"/>
<path d="M2136 2302 c-2 -4 20 -21 50 -37 39 -21 57 -26 65 -18 8 8 -1 18 -33
37 -45 26 -73 32 -82 18z"/>
<path d="M1877 2293 c-9 -8 82 -63 106 -63 29 0 19 17 -27 44 -45 26 -67 32
-79 19z"/>
<path d="M1635 2271 c-3 -5 -2 -12 2 -14 53 -32 86 -46 94 -42 17 11 10 21
-30 43 -42 24 -57 27 -66 13z"/>
<path d="M1830 2262 c0 -5 22 -21 50 -36 35 -19 55 -24 66 -18 13 7 8 14 -31
36 -47 26 -85 34 -85 18z"/>
<path d="M2051 2251 c-10 -7 -2 -15 31 -35 25 -14 51 -26 60 -26 33 0 25 15
-22 42 -56 32 -51 30 -69 19z"/>
<path d="M1570 2230 c-12 -12 -18 -25 -15 -30 3 -5 66 -43 139 -85 139 -78
181 -90 220 -60 11 8 18 17 15 19 -20 17 -310 176 -323 176 -9 0 -25 -9 -36
-20z m70 -35 c-14 -17 -30 -20 -30 -6 0 5 8 12 18 14 9 3 19 5 21 6 2 0 -2 -6
-9 -14z"/>
<path d="M1797 2244 c-14 -14 -7 -23 39 -48 31 -18 51 -23 62 -17 12 7 7 14
-27 35 -53 34 -65 39 -74 30z"/>
<path d="M1996 2221 c-3 -5 19 -22 49 -37 40 -22 57 -26 66 -17 8 8 0 18 -33
37 -46 27 -73 32 -82 17z"/>
<path d="M1742 2213 c-16 -6 71 -63 97 -63 36 0 30 14 -19 42 -51 29 -56 30
-78 21z"/>
<path d="M1963 2203 c-24 -9 -13 -23 35 -47 32 -16 53 -21 62 -16 17 11 17 10
-40 42 -25 14 -51 24 -57 21z"/>
<path d="M1912 2171 c-10 -6 0 -17 36 -39 42 -25 53 -29 67 -18 15 10 11 15
-33 39 -56 31 -52 30 -70 18z"/>
<path d="M1856 2141 c-3 -5 19 -22 49 -37 39 -21 57 -26 65 -18 8 8 -1 18 -34
38 -46 27 -71 32 -80 17z"/>
<path d="M1536 1851 c-4 -5 3 -7 14 -4 23 6 26 13 6 13 -8 0 -17 -4 -20 -9z"/>
<path d="M1340 1140 c0 -11 4 -20 9 -20 5 0 7 9 4 20 -3 11 -7 20 -9 20 -2 0
-4 -9 -4 -20z"/>
<path d="M1530 1163 c0 -5 7 -18 15 -29 12 -16 14 -16 15 -3 0 9 -7 22 -15 29
-8 7 -15 8 -15 3z"/>
<path d="M1522 988 c2 -10 -9 -12 -44 -10 l-48 4 0 -82 0 -83 47 6 c28 3 50
11 55 21 5 9 13 14 17 11 5 -2 7 16 6 42 -3 30 -9 50 -20 56 -12 6 -13 12 -5
22 8 9 8 15 0 20 -6 4 -9 1 -8 -7z"/>
<path d="M1549 973 c-13 -17 -13 -17 6 -3 11 8 22 16 24 17 2 2 0 3 -6 3 -6 0
-17 -8 -24 -17z"/>
<path d="M1565 890 c-3 -5 -1 -10 4 -10 6 0 11 5 11 10 0 6 -2 10 -4 10 -3 0
-8 -4 -11 -10z"/>
<path d="M2090 1145 c0 -63 1 -66 23 -63 20 3 22 8 22 63 0 55 -2 60 -22 63
-22 3 -23 0 -23 -63z"/>
<path d="M2806 1167 c-5 -15 -6 -31 -2 -34 11 -11 18 5 14 34 l-4 28 -8 -28z"/>
<path d="M2392 978 c-15 -15 -16 -132 -2 -159 6 -10 19 -19 30 -19 27 0 40 30
40 95 0 31 -5 65 -10 76 -12 21 -40 25 -58 7z"/>
<path d="M2577 983 c-4 -3 -7 -21 -7 -40 0 -30 3 -33 28 -33 32 0 52 16 52 42
0 26 -55 50 -73 31z"/>
<path d="M2887 891 c-4 -17 -3 -21 5 -13 5 5 8 16 6 23 -3 8 -7 3 -11 -10z"/>
<path d="M3611 2424 c0 -11 3 -14 6 -6 3 7 2 16 -1 19 -3 4 -6 -2 -5 -13z"/>
<path d="M3581 2414 c0 -11 3 -14 6 -6 3 7 2 16 -1 19 -3 4 -6 -2 -5 -13z"/>
</g>
</svg>
